# xmcd
#
# Track frame offsets: 
#        150
#        13146
#        27968
#        48690
#        58917
#        79491
#        95643
#        112087
#        134851
#        154764
#
# Disc length: 2400 seconds
#
# Revision: 0
# Processed by: cddbd v1.5.2PL0 Copyright (c) Steve Scherf et al.
# Submitted via: ExactAudioCopy v0.99pb5
#
DISCID=96095e0a
DTITLE=Led Zeppelin - Lost Mixes EP Vol 08 - Disc 1
DYEAR=1900
DGENRE=
TTITLE0=Sugar Mama
TTITLE1=Poor Tom
TTITLE2=Walter's Walk (inst)
TTITLE3=Ozone Baby
TTITLE4=Walter's Walk
TTITLE5=Ozone Baby
TTITLE6=Night Flight
TTITLE7=Darlene
TTITLE8=Bonzo's Montreux
TTITLE9=Wearing and Tearing
EXTD=
EXTT0=
EXTT1=
EXTT2=
EXTT3=
EXTT4=
EXTT5=
EXTT6=
EXTT7=
EXTT8=
EXTT9=
PLAYORDER=
